<svg xmlns="http://www.w3.org/2000/svg" xmlns:xlink="http://www.w3.org/1999/xlink" width="800" zoomAndPan="magnify" viewBox="0 0 600 449.999984" height="600" preserveAspectRatio="xMidYMid meet" version="1.0"><defs><filter x="0%" y="0%" width="100%" height="100%" id="5d7a64833f"><feColorMatrix values="0 0 0 0 1 0 0 0 0 1 0 0 0 0 1 0 0 0 1 0" color-interpolation-filters="sRGB"/></filter><clipPath id="49adb05e4f"><path d="M 0 0 L 242.25 0 L 242.25 450 L 0 450 Z M 0 0 " clip-rule="nonzero"/></clipPath><clipPath id="dbe2651eb4"><path d="M 196 299 L 242.25 299 L 242.25 335 L 196 335 Z M 196 299 " clip-rule="nonzero"/></clipPath><clipPath id="f7e7a4ac43"><path d="M 161 184 L 242.25 184 L 242.25 300 L 161 300 Z M 161 184 " clip-rule="nonzero"/></clipPath><mask id="0fe50b9ad5"><g filter="url(#5d7a64833f)"><rect x="-60" width="720" fill="#000000" y="-44.999998" height="539.99998" fill-opacity="0.5"/></g></mask><clipPath id="b3d7b4d8b5"><path d="M 81 0.199219 L 127.800781 0.199219 L 127.800781 23.480469 L 81 23.480469 Z M 81 0.199219 " clip-rule="nonzero"/></clipPath><clipPath id="e7a0514b52"><path d="M 0.601562 0.199219 L 47 0.199219 L 47 23.480469 L 0.601562 23.480469 Z M 0.601562 0.199219 " clip-rule="nonzero"/></clipPath><clipPath id="8ccb9d29f8"><rect x="0" width="128" y="0" height="24"/></clipPath><clipPath id="12a862a048"><path d="M 161 184 L 242.25 184 L 242.25 324 L 161 324 Z M 161 184 " clip-rule="nonzero"/></clipPath><mask id="7e0f62a510"><g filter="url(#5d7a64833f)"><rect x="-60" width="720" fill="#000000" y="-44.999998" height="539.99998" fill-opacity="0.3"/></g></mask><clipPath id="0b92e0c982"><path d="M 0.28125 0.558594 L 24 0.558594 L 24 13 L 0.28125 13 Z M 0.28125 0.558594 " clip-rule="nonzero"/></clipPath><clipPath id="50729df9b0"><path d="M 35 46 L 81.25 46 L 81.25 139.039062 L 35 139.039062 Z M 35 46 " clip-rule="nonzero"/></clipPath><clipPath id="6713d8ff41"><rect x="0" width="82" y="0" height="140"/></clipPath><mask id="f9aadc8b47"><g filter="url(#5d7a64833f)"><rect x="-60" width="720" fill="#000000" y="-44.999998" height="539.99998" fill-opacity="0.5"/></g></mask><clipPath id="9550e1d21d"><path d="M 35 0.679688 L 58.839844 0.679688 L 58.839844 36 L 35 36 Z M 35 0.679688 " clip-rule="nonzero"/></clipPath><clipPath id="1f9cec9c78"><path d="M 0.761719 58 L 25 58 L 25 70.28125 L 0.761719 70.28125 Z M 0.761719 58 " clip-rule="nonzero"/></clipPath><clipPath id="6ce50c09ba"><rect x="0" width="59" y="0" height="71"/></clipPath></defs><g clip-path="url(#49adb05e4f)"><path fill="#160059" d="M 230.714844 253.832031 L 230.714844 230.765625 L 219.179688 230.765625 L 219.179688 207.703125 L 207.644531 207.703125 L 207.644531 196.167969 L 184.570312 196.167969 L 184.570312 184.636719 L 149.964844 184.636719 L 149.964844 173.105469 L 173.035156 173.105469 L 173.035156 161.570312 L 184.570312 161.570312 L 184.570312 138.507812 L 196.105469 138.507812 L 196.105469 126.976562 L 207.644531 126.976562 L 207.644531 115.441406 L 219.179688 115.441406 L 219.179688 103.910156 L 230.714844 103.910156 L 230.714844 92.378906 L 219.179688 92.378906 L 219.179688 80.84375 L 230.714844 80.84375 L 230.714844 69.3125 L 219.179688 69.3125 L 219.179688 46.25 L 207.644531 46.25 L 207.644531 34.714844 L 196.105469 34.714844 L 196.105469 23.183594 L 184.570312 23.183594 L 184.570312 11.652344 L 161.5 11.652344 L 161.5 0.117188 L 92.285156 0.117188 L 92.285156 11.652344 L 57.679688 11.652344 L 57.679688 34.714844 L 46.144531 34.714844 L 46.144531 46.25 L 34.605469 46.25 L 34.605469 92.378906 L 23.070312 92.378906 L 23.070312 103.910156 L 34.605469 103.910156 L 34.605469 115.441406 L 46.144531 115.441406 L 46.144531 138.507812 L 57.679688 138.507812 L 57.679688 161.570312 L 69.214844 161.570312 L 69.214844 173.105469 L 92.285156 173.105469 L 92.285156 184.636719 L 57.679688 184.636719 L 57.679688 196.167969 L 34.605469 196.167969 L 34.605469 207.703125 L 23.070312 207.703125 L 23.070312 230.765625 L 11.535156 230.765625 L 11.535156 253.832031 L 0 253.832031 L 0 323.023438 L 11.535156 323.023438 L 11.535156 334.558594 L 46.144531 334.558594 L 46.144531 357.621094 L 57.679688 357.621094 L 57.679688 415.285156 L 46.144531 415.285156 L 46.144531 438.347656 L 57.679688 438.347656 L 57.679688 449.882812 L 103.820312 449.882812 L 103.820312 438.347656 L 115.355469 438.347656 L 115.355469 415.285156 L 126.894531 415.285156 L 126.894531 438.347656 L 138.429688 438.347656 L 138.429688 449.882812 L 184.570312 449.882812 L 184.570312 438.347656 L 196.105469 438.347656 L 196.105469 415.285156 L 184.570312 415.285156 L 184.570312 357.621094 L 196.105469 357.621094 L 196.105469 334.558594 L 230.714844 334.558594 L 230.714844 323.023438 L 242.25 323.023438 L 242.25 253.832031 Z M 230.714844 253.832031 " fill-opacity="1" fill-rule="nonzero"/></g><path fill="#f79277" d="M 196.105469 126.976562 L 207.644531 126.976562 L 207.644531 115.441406 L 196.105469 115.441406 L 196.105469 92.378906 L 115.355469 92.378906 L 115.355469 80.84375 L 103.820312 80.84375 L 103.820312 103.910156 L 57.679688 103.910156 L 57.679688 138.507812 L 69.214844 138.507812 L 69.214844 161.570312 L 92.285156 161.570312 L 92.285156 173.105469 L 103.820312 173.105469 L 103.820312 196.167969 L 138.429688 196.167969 L 138.429688 173.105469 L 173.035156 173.105469 L 173.035156 161.570312 L 184.570312 161.570312 L 184.570312 138.507812 L 196.105469 138.507812 Z M 196.105469 126.976562 " fill-opacity="1" fill-rule="nonzero"/><path fill="#f79277" d="M 11.535156 299.960938 L 46.144531 299.960938 L 46.144531 323.023438 L 11.535156 323.023438 Z M 11.535156 299.960938 " fill-opacity="1" fill-rule="nonzero"/><g clip-path="url(#dbe2651eb4)"><path fill="#f79277" d="M 196.105469 299.960938 L 196.105469 334.558594 L 230.714844 334.558594 L 230.714844 323.023438 L 242.25 323.023438 L 242.25 299.960938 Z M 196.105469 299.960938 " fill-opacity="1" fill-rule="nonzero"/></g><path fill="#ff4800" d="M 173.035156 334.558594 L 57.679688 334.558594 L 57.679688 415.285156 L 184.570312 415.285156 L 184.570312 357.621094 L 196.105469 357.621094 L 196.105469 334.558594 Z M 173.035156 334.558594 " fill-opacity="1" fill-rule="nonzero"/><path fill="#ff4800" d="M 57.679688 207.703125 L 69.214844 207.703125 L 69.214844 196.167969 L 46.144531 196.167969 L 46.144531 207.703125 L 34.605469 207.703125 L 34.605469 230.765625 L 23.070312 230.765625 L 23.070312 265.363281 L 11.535156 265.363281 L 11.535156 299.960938 L 46.144531 299.960938 L 46.144531 265.363281 L 57.679688 265.363281 Z M 57.679688 207.703125 " fill-opacity="1" fill-rule="nonzero"/><g clip-path="url(#f7e7a4ac43)"><path fill="#ff4800" d="M 230.714844 253.832031 L 230.714844 230.765625 L 219.179688 230.765625 L 219.179688 207.703125 L 207.644531 207.703125 L 207.644531 196.167969 L 184.570312 196.167969 L 184.570312 184.636719 L 161.5 184.636719 L 161.5 196.167969 L 173.035156 196.167969 L 173.035156 207.703125 L 184.570312 207.703125 L 184.570312 265.363281 L 196.105469 265.363281 L 196.105469 299.960938 L 242.25 299.960938 L 242.25 253.832031 Z M 230.714844 253.832031 " fill-opacity="1" fill-rule="nonzero"/></g><path fill="#00db4e" d="M 230.714844 80.84375 L 230.714844 69.3125 L 219.179688 69.3125 L 219.179688 46.25 L 207.644531 46.25 L 207.644531 34.714844 L 196.105469 34.714844 L 196.105469 23.183594 L 184.570312 23.183594 L 184.570312 11.652344 L 161.5 11.652344 L 161.5 0.117188 L 103.820312 0.117188 L 103.820312 11.652344 L 92.285156 11.652344 L 92.285156 23.183594 L 69.214844 23.183594 L 69.214844 34.714844 L 57.679688 34.714844 L 57.679688 46.25 L 46.144531 46.25 L 46.144531 92.378906 L 34.605469 92.378906 L 34.605469 103.910156 L 57.679688 103.910156 L 57.679688 92.378906 L 92.285156 92.378906 L 92.285156 80.84375 L 103.820312 80.84375 L 103.820312 69.3125 L 115.355469 69.3125 L 115.355469 80.84375 L 138.429688 80.84375 L 138.429688 92.378906 L 184.570312 92.378906 L 184.570312 103.910156 L 196.105469 103.910156 L 196.105469 115.441406 L 219.179688 115.441406 L 219.179688 103.910156 L 230.714844 103.910156 L 230.714844 92.378906 L 219.179688 92.378906 L 219.179688 80.84375 Z M 230.714844 80.84375 " fill-opacity="1" fill-rule="nonzero"/><path fill="#00db4e" d="M 57.679688 415.285156 L 103.820312 415.285156 L 103.820312 438.347656 L 57.679688 438.347656 Z M 57.679688 415.285156 " fill-opacity="1" fill-rule="nonzero"/><path fill="#00db4e" d="M 138.429688 415.285156 L 184.570312 415.285156 L 184.570312 438.347656 L 138.429688 438.347656 Z M 138.429688 415.285156 " fill-opacity="1" fill-rule="nonzero"/><path fill="#160059" d="M 57.679688 11.652344 L 92.285156 11.652344 L 92.285156 23.183594 L 57.679688 23.183594 Z M 57.679688 11.652344 " fill-opacity="1" fill-rule="nonzero"/><path fill="#160059" d="M 57.679688 23.183594 L 69.214844 23.183594 L 69.214844 34.714844 L 57.679688 34.714844 Z M 57.679688 23.183594 " fill-opacity="1" fill-rule="nonzero"/><path fill="#160059" d="M 46.144531 34.714844 L 57.679688 34.714844 L 57.679688 46.25 L 46.144531 46.25 Z M 46.144531 34.714844 " fill-opacity="1" fill-rule="nonzero"/><path fill="#160059" d="M 34.605469 46.25 L 46.144531 46.25 L 46.144531 92.378906 L 34.605469 92.378906 Z M 34.605469 46.25 " fill-opacity="1" fill-rule="nonzero"/><path fill="#160059" d="M 23.070312 92.378906 L 34.605469 92.378906 L 34.605469 103.910156 L 23.070312 103.910156 Z M 23.070312 92.378906 " fill-opacity="1" fill-rule="nonzero"/><path fill="#160059" d="M 34.605469 103.910156 L 46.144531 103.910156 L 46.144531 115.441406 L 34.605469 115.441406 Z M 34.605469 103.910156 " fill-opacity="1" fill-rule="nonzero"/><path fill="#160059" d="M 46.144531 115.441406 L 57.679688 115.441406 L 57.679688 138.507812 L 46.144531 138.507812 Z M 46.144531 115.441406 " fill-opacity="1" fill-rule="nonzero"/><path fill="#160059" d="M 46.144531 103.910156 L 57.679688 103.910156 L 57.679688 115.441406 L 46.144531 115.441406 Z M 46.144531 103.910156 " fill-opacity="1" fill-rule="nonzero"/><path fill="#160059" d="M 103.820312 69.3125 L 115.355469 69.3125 L 115.355469 80.84375 L 103.820312 80.84375 Z M 103.820312 69.3125 " fill-opacity="1" fill-rule="nonzero"/><path fill="#160059" d="M 115.355469 80.84375 L 138.429688 80.84375 L 138.429688 92.378906 L 115.355469 92.378906 Z M 115.355469 80.84375 " fill-opacity="1" fill-rule="nonzero"/><path fill="#160059" d="M 69.214844 57.78125 L 80.75 57.78125 L 80.75 69.3125 L 69.214844 69.3125 Z M 69.214844 57.78125 " fill-opacity="0.25" fill-rule="nonzero"/><path fill="#160059" d="M 69.214844 69.3125 L 57.679688 69.3125 L 57.679688 80.84375 L 69.214844 80.84375 L 69.214844 92.378906 L 92.285156 92.378906 L 92.285156 69.3125 Z M 69.214844 69.3125 " fill-opacity="0.25" fill-rule="nonzero"/><path fill="#160059" d="M 46.144531 57.78125 L 57.679688 57.78125 L 57.679688 69.3125 L 46.144531 69.3125 Z M 46.144531 57.78125 " fill-opacity="0.25" fill-rule="nonzero"/><path fill="#160059" d="M 46.144531 80.84375 L 57.679688 80.84375 L 57.679688 92.378906 L 46.144531 92.378906 Z M 46.144531 80.84375 " fill-opacity="0.25" fill-rule="nonzero"/><path fill="#160059" d="M 80.75 23.183594 L 92.285156 23.183594 L 92.285156 34.714844 L 80.75 34.714844 Z M 80.75 23.183594 " fill-opacity="0.25" fill-rule="nonzero"/><path fill="#160059" d="M 126.894531 34.714844 L 138.429688 34.714844 L 138.429688 46.25 L 126.894531 46.25 Z M 126.894531 34.714844 " fill-opacity="0.25" fill-rule="nonzero"/><path fill="#160059" d="M 138.429688 23.183594 L 149.964844 23.183594 L 149.964844 34.714844 L 138.429688 34.714844 Z M 138.429688 23.183594 " fill-opacity="0.25" fill-rule="nonzero"/><path fill="#160059" d="M 115.355469 23.183594 L 126.894531 23.183594 L 126.894531 34.714844 L 115.355469 34.714844 Z M 115.355469 23.183594 " fill-opacity="0.25" fill-rule="nonzero"/><path fill="#160059" d="M 138.429688 46.25 L 149.964844 46.25 L 149.964844 57.78125 L 138.429688 57.78125 Z M 138.429688 46.25 " fill-opacity="0.25" fill-rule="nonzero"/><path fill="#160059" d="M 173.035156 69.3125 L 161.5 69.3125 L 161.5 80.84375 L 184.570312 80.84375 L 184.570312 69.3125 Z M 173.035156 69.3125 " fill-opacity="0.25" fill-rule="nonzero"/><path fill="#160059" d="M 196.105469 57.78125 L 184.570312 57.78125 L 184.570312 69.3125 L 196.105469 69.3125 L 196.105469 80.84375 L 207.644531 80.84375 L 207.644531 57.78125 Z M 196.105469 57.78125 " fill-opacity="0.25" fill-rule="nonzero"/><path fill="#160059" d="M 57.679688 34.714844 L 69.214844 34.714844 L 69.214844 46.25 L 57.679688 46.25 Z M 57.679688 34.714844 " fill-opacity="0.25" fill-rule="nonzero"/><path fill="#160059" d="M 69.214844 80.84375 L 80.75 80.84375 L 80.75 92.378906 L 69.214844 92.378906 Z M 69.214844 80.84375 " fill-opacity="0.25" fill-rule="nonzero"/><path fill="#160059" d="M 92.285156 11.652344 L 103.820312 11.652344 L 103.820312 23.183594 L 92.285156 23.183594 Z M 92.285156 11.652344 " fill-opacity="0.25" fill-rule="nonzero"/><path fill="#160059" d="M 57.679688 138.507812 L 69.214844 138.507812 L 69.214844 150.039062 L 57.679688 150.039062 Z M 57.679688 138.507812 " fill-opacity="1" fill-rule="nonzero"/><path fill="#160059" d="M 69.214844 161.570312 L 92.285156 161.570312 L 92.285156 173.105469 L 69.214844 173.105469 Z M 69.214844 161.570312 " fill-opacity="1" fill-rule="nonzero"/><path fill="#160059" d="M 92.285156 173.105469 L 103.820312 173.105469 L 103.820312 184.636719 L 92.285156 184.636719 Z M 92.285156 173.105469 " fill-opacity="1" fill-rule="nonzero"/><path fill="#160059" d="M 138.429688 173.105469 L 149.964844 173.105469 L 149.964844 184.636719 L 138.429688 184.636719 Z M 138.429688 173.105469 " fill-opacity="1" fill-rule="nonzero"/><path fill="#160059" d="M 57.679688 150.039062 L 69.214844 150.039062 L 69.214844 161.570312 L 57.679688 161.570312 Z M 57.679688 150.039062 " fill-opacity="1" fill-rule="nonzero"/><path fill="#160059" d="M 92.285156 92.378906 L 57.679688 92.378906 L 57.679688 103.910156 L 80.75 103.910156 L 80.75 115.441406 L 92.285156 115.441406 L 92.285156 138.507812 L 103.820312 138.507812 L 103.820312 80.84375 L 92.285156 80.84375 Z M 92.285156 92.378906 " fill-opacity="1" fill-rule="nonzero"/><path fill="#160059" d="M 138.429688 92.378906 L 138.429688 138.507812 L 149.964844 138.507812 L 149.964844 115.441406 L 161.5 115.441406 L 161.5 103.910156 L 184.570312 103.910156 L 184.570312 92.378906 Z M 138.429688 92.378906 " fill-opacity="1" fill-rule="nonzero"/><path fill="#160059" d="M 161.5 115.441406 L 173.035156 115.441406 L 173.035156 126.976562 L 161.5 126.976562 Z M 161.5 115.441406 " fill-opacity="1" fill-rule="nonzero"/><path fill="#160059" d="M 69.214844 115.441406 L 80.75 115.441406 L 80.75 126.976562 L 69.214844 126.976562 Z M 69.214844 115.441406 " fill-opacity="1" fill-rule="nonzero"/><path fill="#552cff" d="M 92.285156 126.976562 L 103.820312 126.976562 L 103.820312 138.507812 L 92.285156 138.507812 Z M 92.285156 126.976562 " fill-opacity="1" fill-rule="nonzero"/><path fill="#552cff" d="M 138.429688 126.976562 L 149.964844 126.976562 L 149.964844 138.507812 L 138.429688 138.507812 Z M 138.429688 126.976562 " fill-opacity="1" fill-rule="nonzero"/><path fill="#160059" d="M 80.75 184.636719 L 103.820312 184.636719 L 103.820312 196.167969 L 80.75 196.167969 Z M 80.75 184.636719 " fill-opacity="1" fill-rule="nonzero"/><path fill="#160059" d="M 103.820312 196.167969 L 138.429688 196.167969 L 138.429688 207.703125 L 103.820312 207.703125 Z M 103.820312 196.167969 " fill-opacity="1" fill-rule="nonzero"/><path fill="#160059" d="M 138.429688 184.636719 L 161.5 184.636719 L 161.5 196.167969 L 138.429688 196.167969 Z M 138.429688 184.636719 " fill-opacity="1" fill-rule="nonzero"/><path fill="#160059" d="M 46.144531 323.023438 L 196.105469 323.023438 L 196.105469 334.558594 L 46.144531 334.558594 Z M 46.144531 323.023438 " fill-opacity="1" fill-rule="nonzero"/><path fill="#160059" d="M 46.144531 265.363281 L 57.679688 265.363281 L 57.679688 357.621094 L 46.144531 357.621094 Z M 46.144531 265.363281 " fill-opacity="1" fill-rule="nonzero"/><path fill="#160059" d="M 57.679688 207.703125 L 69.214844 207.703125 L 69.214844 265.363281 L 57.679688 265.363281 Z M 57.679688 207.703125 " fill-opacity="1" fill-rule="nonzero"/><path fill="#160059" d="M 69.214844 196.167969 L 80.75 196.167969 L 80.75 207.703125 L 69.214844 207.703125 Z M 69.214844 196.167969 " fill-opacity="1" fill-rule="nonzero"/><path fill="#552cff" d="M 184.570312 265.363281 L 184.570312 207.703125 L 173.035156 207.703125 L 173.035156 196.167969 L 138.429688 196.167969 L 138.429688 207.703125 L 103.820312 207.703125 L 103.820312 196.167969 L 80.75 196.167969 L 80.75 207.703125 L 69.214844 207.703125 L 69.214844 265.363281 L 57.679688 265.363281 L 57.679688 323.023438 L 196.105469 323.023438 L 196.105469 265.363281 Z M 184.570312 265.363281 " fill-opacity="1" fill-rule="nonzero"/><path fill="#160059" d="M 161.5 196.167969 L 173.035156 196.167969 L 173.035156 207.703125 L 161.5 207.703125 Z M 161.5 196.167969 " fill-opacity="1" fill-rule="nonzero"/><path fill="#160059" d="M 173.035156 207.703125 L 184.570312 207.703125 L 184.570312 265.363281 L 173.035156 265.363281 Z M 173.035156 207.703125 " fill-opacity="1" fill-rule="nonzero"/><path fill="#160059" d="M 184.570312 265.363281 L 196.105469 265.363281 L 196.105469 323.023438 L 184.570312 323.023438 Z M 184.570312 265.363281 " fill-opacity="1" fill-rule="nonzero"/><path fill="#160059" d="M 103.820312 173.105469 L 138.429688 173.105469 L 138.429688 184.636719 L 103.820312 184.636719 Z M 103.820312 173.105469 " fill-opacity="0.3" fill-rule="nonzero"/><path fill="#160059" d="M 92.285156 161.570312 L 103.820312 161.570312 L 103.820312 173.105469 L 92.285156 173.105469 Z M 92.285156 161.570312 " fill-opacity="0.3" fill-rule="nonzero"/><path fill="#160059" d="M 80.75 138.507812 L 80.75 161.570312 L 69.214844 161.570312 L 69.214844 138.507812 Z M 80.75 138.507812 " fill-opacity="0.2" fill-rule="nonzero"/><path fill="#160059" d="M 69.214844 103.910156 L 80.75 103.910156 L 80.75 115.441406 L 69.214844 115.441406 Z M 69.214844 103.910156 " fill-opacity="0.3" fill-rule="nonzero"/><path fill="#160059" d="M 138.429688 161.570312 L 149.964844 161.570312 L 149.964844 173.105469 L 138.429688 173.105469 Z M 138.429688 161.570312 " fill-opacity="0.3" fill-rule="nonzero"/><path fill="#160059" d="M 173.035156 138.507812 L 173.035156 161.570312 L 161.5 161.570312 L 161.5 138.507812 Z M 173.035156 138.507812 " fill-opacity="0.2" fill-rule="nonzero"/><path fill="#160059" d="M 161.5 103.910156 L 173.035156 103.910156 L 173.035156 115.441406 L 161.5 115.441406 Z M 161.5 103.910156 " fill-opacity="0.3" fill-rule="nonzero"/><path fill="#160059" d="M 57.679688 357.621094 L 69.214844 357.621094 L 69.214844 415.285156 L 57.679688 415.285156 Z M 57.679688 357.621094 " fill-opacity="1" fill-rule="nonzero"/><path fill="#160059" d="M 115.355469 369.15625 L 126.894531 369.15625 L 126.894531 415.285156 L 115.355469 415.285156 Z M 115.355469 369.15625 " fill-opacity="1" fill-rule="nonzero"/><path fill="#160059" d="M 103.820312 357.621094 L 138.429688 357.621094 L 138.429688 369.15625 L 103.820312 369.15625 Z M 103.820312 357.621094 " fill-opacity="1" fill-rule="nonzero"/><path fill="#160059" d="M 46.144531 415.285156 L 57.679688 415.285156 L 57.679688 438.347656 L 46.144531 438.347656 Z M 46.144531 415.285156 " fill-opacity="1" fill-rule="nonzero"/><path fill="#160059" d="M 57.679688 438.347656 L 103.820312 438.347656 L 103.820312 449.882812 L 57.679688 449.882812 Z M 57.679688 438.347656 " fill-opacity="1" fill-rule="nonzero"/><path fill="#160059" d="M 103.820312 415.285156 L 115.355469 415.285156 L 115.355469 438.347656 L 103.820312 438.347656 Z M 103.820312 415.285156 " fill-opacity="1" fill-rule="nonzero"/><path fill="#160059" d="M 126.894531 415.285156 L 138.429688 415.285156 L 138.429688 438.347656 L 126.894531 438.347656 Z M 126.894531 415.285156 " fill-opacity="1" fill-rule="nonzero"/><path fill="#160059" d="M 57.679688 403.75 L 103.820312 403.75 L 103.820312 415.285156 L 57.679688 415.285156 Z M 57.679688 403.75 " fill-opacity="1" fill-rule="nonzero"/><path fill="#160059" d="M 138.429688 403.75 L 173.035156 403.75 L 173.035156 415.285156 L 138.429688 415.285156 Z M 138.429688 403.75 " fill-opacity="1" fill-rule="nonzero"/><path fill="#160059" d="M 138.429688 438.347656 L 184.570312 438.347656 L 184.570312 449.882812 L 138.429688 449.882812 Z M 138.429688 438.347656 " fill-opacity="1" fill-rule="nonzero"/><path fill="#160059" d="M 184.570312 415.285156 L 196.105469 415.285156 L 196.105469 438.347656 L 184.570312 438.347656 Z M 184.570312 415.285156 " fill-opacity="1" fill-rule="nonzero"/><g mask="url(#0fe50b9ad5)"><g transform="matrix(1, 0, 0, 1, 57, 415)"><g clip-path="url(#8ccb9d29f8)"><g clip-path="url(#b3d7b4d8b5)"><path fill="#160059" d="M 92.964844 11.816406 L 127.570312 11.816406 L 127.570312 0.285156 L 81.429688 0.285156 L 81.429688 23.347656 L 92.964844 23.347656 Z M 92.964844 11.816406 " fill-opacity="1" fill-rule="nonzero"/></g><g clip-path="url(#e7a0514b52)"><path fill="#160059" d="M 35.285156 11.816406 L 35.285156 23.347656 L 46.820312 23.347656 L 46.820312 0.285156 L 0.679688 0.285156 L 0.679688 11.816406 Z M 35.285156 11.816406 " fill-opacity="1" fill-rule="nonzero"/></g></g></g></g><path fill="#160059" d="M 138.429688 357.621094 L 138.429688 369.15625 L 126.894531 369.15625 L 126.894531 415.285156 L 138.429688 415.285156 L 138.429688 380.6875 L 149.964844 380.6875 L 149.964844 357.621094 Z M 138.429688 357.621094 " fill-opacity="0.3" fill-rule="nonzero"/><path fill="#160059" d="M 103.820312 357.621094 L 92.285156 357.621094 L 92.285156 380.6875 L 103.820312 380.6875 L 103.820312 415.285156 L 115.355469 415.285156 L 115.355469 369.15625 L 103.820312 369.15625 Z M 103.820312 357.621094 " fill-opacity="0.3" fill-rule="nonzero"/><path fill="#160059" d="M 184.570312 334.558594 L 184.570312 346.089844 L 57.679688 346.089844 L 57.679688 334.558594 Z M 184.570312 334.558594 " fill-opacity="0.2" fill-rule="nonzero"/><path fill="#160059" d="M 57.679688 184.636719 L 80.75 184.636719 L 80.75 196.167969 L 57.679688 196.167969 Z M 57.679688 184.636719 " fill-opacity="1" fill-rule="nonzero"/><path fill="#160059" d="M 34.605469 196.167969 L 46.144531 196.167969 L 46.144531 207.703125 L 34.605469 207.703125 Z M 34.605469 196.167969 " fill-opacity="1" fill-rule="nonzero"/><path fill="#160059" d="M 23.070312 207.703125 L 34.605469 207.703125 L 34.605469 230.765625 L 23.070312 230.765625 Z M 23.070312 207.703125 " fill-opacity="1" fill-rule="nonzero"/><path fill="#160059" d="M 11.535156 230.765625 L 23.070312 230.765625 L 23.070312 265.363281 L 11.535156 265.363281 Z M 11.535156 230.765625 " fill-opacity="1" fill-rule="nonzero"/><path fill="#160059" d="M 0 253.832031 L 11.535156 253.832031 L 11.535156 299.960938 L 0 299.960938 Z M 0 253.832031 " fill-opacity="1" fill-rule="nonzero"/><path fill="#160059" d="M 46.144531 196.167969 L 57.679688 196.167969 L 57.679688 207.703125 L 46.144531 207.703125 Z M 46.144531 196.167969 " fill-opacity="1" fill-rule="nonzero"/><path fill="#160059" d="M 0 299.960938 L 11.535156 299.960938 L 11.535156 323.023438 L 0 323.023438 Z M 0 299.960938 " fill-opacity="1" fill-rule="nonzero"/><path fill="#160059" d="M 11.535156 323.023438 L 57.679688 323.023438 L 57.679688 334.558594 L 11.535156 334.558594 Z M 11.535156 323.023438 " fill-opacity="1" fill-rule="nonzero"/><path fill="#160059" d="M 23.070312 299.960938 L 34.605469 299.960938 L 34.605469 311.492188 L 23.070312 311.492188 Z M 23.070312 299.960938 " fill-opacity="0.25" fill-rule="nonzero"/><path fill="#160059" d="M 207.644531 299.960938 L 219.179688 299.960938 L 219.179688 311.492188 L 207.644531 311.492188 Z M 207.644531 299.960938 " fill-opacity="0.25" fill-rule="nonzero"/><path fill="#160059" d="M 126.894531 0.117188 L 161.5 0.117188 L 161.5 11.652344 L 126.894531 11.652344 Z M 126.894531 0.117188 " fill-opacity="0.5" fill-rule="nonzero"/><path fill="#160059" d="M 34.605469 92.378906 L 57.679688 92.378906 L 57.679688 103.910156 L 34.605469 103.910156 Z M 34.605469 92.378906 " fill-opacity="0.5" fill-rule="nonzero"/><path fill="#160059" d="M 80.75 46.25 L 80.75 34.714844 L 57.679688 34.714844 L 57.679688 57.78125 L 69.214844 57.78125 L 69.214844 69.3125 L 92.285156 69.3125 L 92.285156 46.25 Z M 80.75 46.25 " fill-opacity="0.5" fill-rule="nonzero"/><path fill="#160059" d="M 161.5 46.25 L 149.964844 46.25 L 149.964844 69.3125 L 173.035156 69.3125 L 173.035156 57.78125 L 184.570312 57.78125 L 184.570312 34.714844 L 161.5 34.714844 Z M 161.5 46.25 " fill-opacity="0.5" fill-rule="nonzero"/><path fill="#160059" d="M 138.429688 80.84375 L 126.894531 80.84375 L 126.894531 69.3125 L 138.429688 69.3125 L 138.429688 57.78125 L 126.894531 57.78125 L 126.894531 34.714844 L 103.820312 34.714844 L 103.820312 23.183594 L 92.285156 23.183594 L 92.285156 46.25 L 103.820312 46.25 L 103.820312 69.3125 L 92.285156 69.3125 L 92.285156 80.84375 L 103.820312 80.84375 L 103.820312 103.910156 L 138.429688 103.910156 L 138.429688 92.378906 L 161.5 92.378906 L 161.5 80.84375 L 149.964844 80.84375 L 149.964844 69.3125 L 138.429688 69.3125 Z M 138.429688 80.84375 " fill-opacity="0.5" fill-rule="nonzero"/><path fill="#160059" d="M 161.5 11.652344 L 184.570312 11.652344 L 184.570312 23.183594 L 161.5 23.183594 Z M 161.5 11.652344 " fill-opacity="0.5" fill-rule="nonzero"/><path fill="#160059" d="M 184.570312 23.183594 L 196.105469 23.183594 L 196.105469 34.714844 L 184.570312 34.714844 Z M 184.570312 23.183594 " fill-opacity="0.5" fill-rule="nonzero"/><path fill="#160059" d="M 230.714844 80.84375 L 230.714844 69.3125 L 219.179688 69.3125 L 219.179688 46.25 L 207.644531 46.25 L 207.644531 34.714844 L 196.105469 34.714844 L 196.105469 57.78125 L 207.644531 57.78125 L 207.644531 69.3125 L 196.105469 69.3125 L 196.105469 80.84375 L 207.644531 80.84375 L 207.644531 92.378906 L 196.105469 92.378906 L 196.105469 80.84375 L 184.570312 80.84375 L 184.570312 103.910156 L 207.644531 103.910156 L 207.644531 115.441406 L 219.179688 115.441406 L 219.179688 103.910156 L 230.714844 103.910156 L 230.714844 92.378906 L 219.179688 92.378906 L 219.179688 80.84375 Z M 230.714844 80.84375 " fill-opacity="0.5" fill-rule="nonzero"/><path fill="#160059" d="M 126.894531 184.636719 L 138.429688 184.636719 L 138.429688 196.167969 L 126.894531 196.167969 Z M 126.894531 184.636719 " fill-opacity="0.5" fill-rule="nonzero"/><path fill="#160059" d="M 103.820312 184.636719 L 115.355469 184.636719 L 115.355469 196.167969 L 103.820312 196.167969 Z M 103.820312 184.636719 " fill-opacity="0.5" fill-rule="nonzero"/><path fill="#160059" d="M 173.035156 357.621094 L 184.570312 357.621094 L 184.570312 415.285156 L 173.035156 415.285156 Z M 173.035156 357.621094 " fill-opacity="0.5" fill-rule="nonzero"/><path fill="#160059" d="M 34.605469 311.492188 L 57.679688 311.492188 L 57.679688 323.023438 L 34.605469 323.023438 Z M 34.605469 311.492188 " fill-opacity="0.5" fill-rule="nonzero"/><path fill="#160059" d="M 207.644531 311.492188 L 184.570312 311.492188 L 184.570312 357.621094 L 196.105469 357.621094 L 196.105469 334.558594 L 230.714844 334.558594 L 230.714844 323.023438 L 207.644531 323.023438 Z M 207.644531 311.492188 " fill-opacity="0.5" fill-rule="nonzero"/><path fill="#160059" d="M 46.144531 207.703125 L 57.679688 207.703125 L 57.679688 265.363281 L 46.144531 265.363281 Z M 46.144531 207.703125 " fill-opacity="0.5" fill-rule="nonzero"/><path fill="#160059" d="M 184.570312 207.703125 L 196.105469 207.703125 L 196.105469 265.363281 L 184.570312 265.363281 Z M 184.570312 207.703125 " fill-opacity="0.5" fill-rule="nonzero"/><path fill="#160059" d="M 57.679688 196.167969 L 69.214844 196.167969 L 69.214844 207.703125 L 57.679688 207.703125 Z M 57.679688 196.167969 " fill-opacity="0.5" fill-rule="nonzero"/><path fill="#160059" d="M 173.035156 196.167969 L 184.570312 196.167969 L 184.570312 207.703125 L 173.035156 207.703125 Z M 173.035156 196.167969 " fill-opacity="0.5" fill-rule="nonzero"/><path fill="#160059" d="M 57.679688 265.363281 L 69.214844 265.363281 L 69.214844 323.023438 L 57.679688 323.023438 Z M 57.679688 265.363281 " fill-opacity="0.2" fill-rule="nonzero"/><path fill="#160059" d="M 173.035156 265.363281 L 184.570312 265.363281 L 184.570312 323.023438 L 173.035156 323.023438 Z M 173.035156 265.363281 " fill-opacity="0.2" fill-rule="nonzero"/><path fill="#160059" d="M 69.214844 207.703125 L 80.75 207.703125 L 80.75 265.363281 L 69.214844 265.363281 Z M 69.214844 207.703125 " fill-opacity="0.2" fill-rule="nonzero"/><path fill="#160059" d="M 161.5 207.703125 L 173.035156 207.703125 L 173.035156 265.363281 L 161.5 265.363281 Z M 161.5 207.703125 " fill-opacity="0.2" fill-rule="nonzero"/><path fill="#160059" d="M 80.75 196.167969 L 103.820312 196.167969 L 103.820312 207.703125 L 80.75 207.703125 Z M 80.75 196.167969 " fill-opacity="0.2" fill-rule="nonzero"/><path fill="#160059" d="M 138.429688 196.167969 L 161.5 196.167969 L 161.5 207.703125 L 138.429688 207.703125 Z M 138.429688 196.167969 " fill-opacity="0.2" fill-rule="nonzero"/><path fill="#160059" d="M 115.355469 196.167969 L 126.894531 196.167969 L 126.894531 334.558594 L 115.355469 334.558594 Z M 115.355469 196.167969 " fill-opacity="1" fill-rule="nonzero"/><path fill="#160059" d="M 138.429688 276.894531 L 173.035156 276.894531 L 173.035156 288.429688 L 138.429688 288.429688 Z M 138.429688 276.894531 " fill-opacity="1" fill-rule="nonzero"/><path fill="#160059" d="M 69.214844 276.894531 L 103.820312 276.894531 L 103.820312 288.429688 L 69.214844 288.429688 Z M 69.214844 276.894531 " fill-opacity="1" fill-rule="nonzero"/><path fill="#160059" d="M 80.75 299.960938 L 92.285156 299.960938 L 92.285156 311.492188 L 80.75 311.492188 Z M 80.75 299.960938 " fill-opacity="1" fill-rule="nonzero"/><path fill="#160059" d="M 149.964844 299.960938 L 161.5 299.960938 L 161.5 311.492188 L 149.964844 311.492188 Z M 149.964844 299.960938 " fill-opacity="1" fill-rule="nonzero"/><path fill="#160059" d="M 103.820312 207.703125 L 138.429688 207.703125 L 138.429688 334.558594 L 103.820312 334.558594 Z M 103.820312 207.703125 " fill-opacity="0.3" fill-rule="nonzero"/><path fill="#160059" d="M 0 288.429688 L 57.679688 288.429688 L 57.679688 299.960938 L 0 299.960938 Z M 0 288.429688 " fill-opacity="0.3" fill-rule="nonzero"/><g clip-path="url(#12a862a048)"><g mask="url(#7e0f62a510)"><g transform="matrix(1, 0, 0, 1, 161, 184)"><g clip-path="url(#6713d8ff41)"><g clip-path="url(#0b92e0c982)"><path fill="#160059" d="M 0.5 0.636719 L 23.570312 0.636719 L 23.570312 12.167969 L 0.5 12.167969 Z M 0.5 0.636719 " fill-opacity="1" fill-rule="nonzero"/></g><path fill="#160059" d="M 23.570312 12.167969 L 46.644531 12.167969 L 46.644531 23.703125 L 23.570312 23.703125 Z M 23.570312 12.167969 " fill-opacity="1" fill-rule="nonzero"/><path fill="#160059" d="M 46.644531 23.703125 L 58.179688 23.703125 L 58.179688 46.765625 L 46.644531 46.765625 Z M 46.644531 23.703125 " fill-opacity="1" fill-rule="nonzero"/><g clip-path="url(#50729df9b0)"><path fill="#160059" d="M 69.714844 69.832031 L 69.714844 46.765625 L 58.179688 46.765625 L 58.179688 81.363281 L 69.714844 81.363281 L 69.714844 104.429688 L 35.105469 104.429688 L 35.105469 115.960938 L 69.714844 115.960938 L 69.714844 139.023438 L 81.25 139.023438 L 81.25 69.832031 Z M 69.714844 69.832031 " fill-opacity="1" fill-rule="nonzero"/></g></g></g></g></g><path fill="#160059" d="M 173.035156 103.910156 L 138.429688 103.910156 L 138.429688 80.84375 L 103.820312 80.84375 L 103.820312 103.910156 L 57.679688 103.910156 L 57.679688 138.507812 L 69.214844 138.507812 L 69.214844 115.441406 L 173.035156 115.441406 L 173.035156 138.507812 L 184.570312 138.507812 L 184.570312 103.910156 Z M 173.035156 103.910156 " fill-opacity="0.3" fill-rule="nonzero"/><g mask="url(#f9aadc8b47)"><g transform="matrix(1, 0, 0, 1, 149, 103)"><g clip-path="url(#6ce50c09ba)"><g clip-path="url(#9550e1d21d)"><path fill="#160059" d="M 47.105469 12.441406 L 47.105469 0.910156 L 35.570312 0.910156 L 35.570312 35.507812 L 47.105469 35.507812 L 47.105469 23.976562 L 58.644531 23.976562 L 58.644531 12.441406 Z M 47.105469 12.441406 " fill-opacity="1" fill-rule="nonzero"/></g><path fill="#160059" d="M 24.035156 47.039062 L 24.035156 58.570312 L 35.570312 58.570312 L 35.570312 35.507812 L 24.035156 35.507812 Z M 24.035156 47.039062 " fill-opacity="1" fill-rule="nonzero"/><g clip-path="url(#1f9cec9c78)"><path fill="#160059" d="M 0.964844 58.570312 L 24.035156 58.570312 L 24.035156 70.105469 L 0.964844 70.105469 Z M 0.964844 58.570312 " fill-opacity="1" fill-rule="nonzero"/></g></g></g></g><path fill="#160059" d="M 92.285156 0.117188 L 126.894531 0.117188 L 126.894531 11.652344 L 92.285156 11.652344 Z M 92.285156 0.117188 " fill-opacity="1" fill-rule="nonzero"/><path fill="#160059" d="M 149.964844 161.570312 L 173.035156 161.570312 L 173.035156 173.105469 L 149.964844 173.105469 Z M 149.964844 161.570312 " fill-opacity="1" fill-rule="nonzero"/><path fill="#160059" d="M 184.570312 103.910156 L 196.105469 103.910156 L 196.105469 115.441406 L 184.570312 115.441406 Z M 184.570312 103.910156 " fill-opacity="1" fill-rule="nonzero"/><path fill="#160059" d="M 196.105469 115.441406 L 207.644531 115.441406 L 207.644531 126.976562 L 196.105469 126.976562 Z M 196.105469 115.441406 " fill-opacity="1" fill-rule="nonzero"/></svg>